<svg viewBox="0 0 400 300" xmlns="http://www.w3.org/2000/svg">
  <defs>
    <linearGradient id="ticketGradient" x1="0%" y1="0%" x2="100%" y2="100%">
      <stop offset="0%" style="stop-color:#ff7e00;stop-opacity:1" />
      <stop offset="100%" style="stop-color:#ff3300;stop-opacity:1" />
    </linearGradient>
  </defs>
  
  <path d="M70 70 L330 70 L330 180 L70 180 Z" fill="url(#ticketGradient)" stroke="#ff5500" stroke-width="3"/>
  
  <path d="M70 70 L330 70 L330 180 L70 180 Z" stroke="#ffec99" stroke-width="2" stroke-dasharray="8,8" fill="none"/>
 
  <path d="M260 100 L280 100 L275 130 L265 130 L260 150 L240 115 L255 115 Z" fill="#ffff00" stroke="#ff5500" stroke-width="2"/>
  
  <path d="M110 105 Q110 95, 120 95 Q130 95, 130 105 L130 145 Q130 155, 120 155 Q110 155, 110 145 Z" fill="#ffff00" stroke="#ff5500" stroke-width="2"/>
  <path d="M130 105 L140 100 L140 140 L130 145" fill="#ffff00" stroke="#ff5500" stroke-width="2"/>
   
  <text x="200" y="138" font-family="Arial, sans-serif" font-size="32" font-weight="bold" fill="#7e130a" text-anchor="middle">FestiClick</text>
  
  <circle cx="90" cy="90" r="5" fill="#ffd700" />
  <circle cx="310" cy="90" r="5" fill="#ffd700" />
  <circle cx="90" cy="160" r="5" fill="#ffd700" />
  <circle cx="310" cy="160" r="5" fill="#ffd700" />
  
  <circle cx="90" cy="120" r="3" fill="#ff3399" />
  <circle cx="310" cy="120" r="3" fill="#33ff99" />
  <circle cx="180" cy="80" r="3" fill="#ffcc00" />
  <circle cx="180" cy="170" r="3" fill="#ff66cc" />
  <rect x="285" y="135" width="6" height="6" fill="#00ffff" transform="rotate(45, 288, 138)" />
</svg>
